# xmcd
#
# Track frame offsets: 
#        150
#        17984
#        25543
#        44038
#        52262
#        69461
#        87033
#        98416
#        115849
#        134760
#        149231
#        162892
#        173207
#        188867
#        201974
#        211711
#        219547
#        229804
#
# Disc length: 3229 seconds
#
# Revision: 0
# Processed by: cddbd v1.4PL0 Copyright (c) Steve Scherf et al.
# Submitted via: ExactAudioCopy v0.95a1
#
DISCID=0c0c9b12
DTITLE=Harvester - Mud Is My Ally
DYEAR=1999
DGENRE=Alternative
TTITLE0=Slow
TTITLE1=Ge Softlight Canon
TTITLE2=Pendleton
TTITLE3=Next Time I'm Taking The Elevator!
TTITLE4=Girl
TTITLE5=This Dirt Don't Hurt
TTITLE6=Mountains To The East
TTITLE7=Teenage Foot Soldier
TTITLE8=The Cooling Drain
TTITLE9=The River Is Wider Than The View
TTITLE10=The Last Remake Of Virginia Dare
TTITLE11=He Tripped Over Air
TTITLE12=My Soundtrack To Someone Else's Movie
TTITLE13=Untitled 1
TTITLE14=Untitled 2
TTITLE15=Untitled 3
TTITLE16=Untitled 4
TTITLE17=Untitled 5
EXTD=
EXTT0=
EXTT1=
EXTT2=
EXTT3=
EXTT4=
EXTT5=
EXTT6=
EXTT7=
EXTT8=
EXTT9=
EXTT10=
EXTT11=
EXTT12=
EXTT13=
EXTT14=
EXTT15=
EXTT16=
EXTT17=
PLAYORDER=
